<?xml version="1.0" encoding="UTF-8" standalone="no"?>
<svg
   xmlns:dc="http://purl.org/dc/elements/1.1/"
   xmlns:cc="http://creativecommons.org/ns#"
   xmlns:rdf="http://www.w3.org/1999/02/22-rdf-syntax-ns#"
   xmlns:svg="http://www.w3.org/2000/svg"
   xmlns="http://www.w3.org/2000/svg"
   xmlns:sodipodi="http://sodipodi.sourceforge.net/DTD/sodipodi-0.dtd"
   xmlns:inkscape="http://www.inkscape.org/namespaces/inkscape"
   fill="#FFFFFF"
   height="24"
   viewBox="0 0 24 24"
   width="24"
   id="svg3070"
   version="1.1"
   inkscape:version="0.48.5 r10040"
   sodipodi:docname="ic_cat_white-mdpi.svg">
  <metadata
     id="metadata3080">
    <rdf:RDF>
      <cc:Work
         rdf:about="">
        <dc:format>image/svg+xml</dc:format>
        <dc:type
           rdf:resource="http://purl.org/dc/dcmitype/StillImage" />
        <dc:title />
      </cc:Work>
    </rdf:RDF>
  </metadata>
  <defs
     id="defs3078" />
  <sodipodi:namedview
     pagecolor="#ffffff"
     bordercolor="#666666"
     borderopacity="1"
     objecttolerance="10"
     gridtolerance="10"
     guidetolerance="10"
     inkscape:pageopacity="0"
     inkscape:pageshadow="2"
     inkscape:window-width="1916"
     inkscape:window-height="1055"
     id="namedview3076"
     showgrid="false"
     inkscape:zoom="5.6568543"
     inkscape:cx="-13.220644"
     inkscape:cy="-34.235822"
     inkscape:window-x="1920"
     inkscape:window-y="0"
     inkscape:window-maximized="0"
     inkscape:current-layer="svg3070" />
  <path
     d="M0 0h24v24H0z"
     fill="none"
     id="path3074" />
  <path
     style="fill:#ffffff;fill-opacity:1;stroke:none"
     d="m 6.304762,8.2706764 c -1.980316,0 -3.669635,1.5558145 -4.304762,3.7293286 0.635127,2.173514 2.324446,3.729328 4.304762,3.729328 0.146048,0 0.289169,-0.0148 0.431746,-0.03134 0.393239,-1.033062 0.632456,-2.162744 0.673016,-3.353261 l 1.663492,0 0,2.601127 c 0,0.228407 0.14506,0.407406 0.330159,0.407406 l 0.101587,0 c 0.185099,0 0.330159,-0.178999 0.330159,-0.407406 l 0,-2.601127 1.91746,0 0,2.381756 c 0,0.228406 0.14506,0.407405 0.330159,0.407405 l 0.101587,0 c 0.185099,0 0.330159,-0.178999 0.330159,-0.407405 l 0,-2.381756 1.91746,0 0,1.300564 c 0,0.228406 0.14506,0.423074 0.330159,0.423074 l 0.101587,0 c 0.185099,0 0.330159,-0.194668 0.330159,-0.423074 l 0,-1.300564 2.285714,0 C 18.854578,13.382444 20.500958,14.814018 22,15.180899 22,14.150257 21.301181,12.632445 20.742857,12.094017 21.320389,11.419709 22,10.037775 22,9.0071361 20.597341,9.1734394 18.871571,10.612207 17.479365,11.655273 l -2.285714,0 0,-1.363243 c 0,-0.228406 -0.14506,-0.4074056 -0.330159,-0.4074056 l -0.101587,0 c -0.185099,0 -0.330159,0.1789996 -0.330159,0.4074056 l 0,1.363243 -1.91746,0 0,-1.9430119 c 0,-0.2284058 -0.14506,-0.4074053 -0.330159,-0.4074053 l -0.101587,0 c -0.185099,0 -0.330159,0.1789995 -0.330159,0.4074053 l 0,1.9430119 -1.91746,0 0,-2.6011288 c 0,-0.2284064 -0.14506,-0.4074059 -0.330159,-0.4074059 l -0.101587,0 c -0.185099,0 -0.330159,0.1789995 -0.330159,0.4074059 l 0,2.6011288 -1.663492,0 C 7.368964,10.464755 7.129747,9.3350732 6.736508,8.3020105 6.593931,8.285463 6.45081,8.2706677 6.304762,8.2706677 z M 5.301587,9.8846293 c 0.406642,0 0.736508,0.4070457 0.736508,0.9088277 0,0.501783 -0.329866,0.893159 -0.736508,0.893159 -0.406641,0 -0.736508,-0.391376 -0.736508,-0.893159 0,-0.501782 0.329867,-0.9088277 0.736508,-0.9088277 z"
     id="path2991"
     inkscape:connector-curvature="0" />
</svg>
